<svg height="512" viewBox="0 0 512 512" width="512" xmlns="http://www.w3.org/2000/svg"><g id="Solid"><path d="m432 416h32v32h-32z"/><path d="m370.7 78.938 3.32 3.793a8.008 8.008 0 0 1 1.98 5.269v40h16v16h-16v152h16v16h-16v88h40v-308.994l-1.34-1.531a168.3 168.3 0 0 0 -104.335-55.986 184.236 184.236 0 0 1 60.375 45.449z"/><path d="m224 168v80h16v-80a8 8 0 0 1 8-8h32v-16h-32a8 8 0 0 1 -8-8v-32h-16v32a8 8 0 0 1 -8 8h-32v16h32a8 8 0 0 1 8 8z"/><path d="m472 464h-432a8 8 0 0 0 0 16h432a8 8 0 0 0 0-16z"/><path d="m360 248h-16v-16h16v-88h-16v-16h16v-36.994l-1.34-1.531a168.3 168.3 0 0 0 -253.32 0l-1.34 1.531v308.994h256zm-184-120h32v-32a8 8 0 0 1 8-8h32a8 8 0 0 1 8 8v32h32a8 8 0 0 1 8 8v32a8 8 0 0 1 -8 8h-32v80a8 8 0 0 1 -8 8h-32a8 8 0 0 1 -8-8v-80h-32a8 8 0 0 1 -8-8v-32a8 8 0 0 1 8-8zm-24-56h16v16h-16zm-32 64h24v16h-24zm24 240h-16v-16h16zm0-80h32v16h-32zm104 48h-88v-16h88zm56 0h-40v-16h40zm16-32h-128v-16h128z"/><path d="m344 432h16v16h56v-32h-240v16h-16v-16h-104v32h288z"/></g></svg>